# xmcd
#
# Track frame offsets: 
#        150
#        18117
#        37963
#        66152
#        85562
#        103138
#        121961
#        140616
#        164835
#        187723
#        207849
#        232881
#        254962
#
# Disc length: 3758 seconds
#
# Revision: 0
# Processed by: cddbd v1.5.2PL0 Copyright (c) Steve Scherf et al.
# Submitted via: ExactAudioCopy v1.0b4
#
DISCID=ad0eac0d
DTITLE=Lonnie Shields Band - Code Blue
DYEAR=2017
DGENRE=Blues
TTITLE0=Empty Pocket Man
TTITLE1=Can't Change My Mind
TTITLE2=Code Blue
TTITLE3=Hard Hearted Woman
TTITLE4=Still Called The Blues
TTITLE5=I Like To Live The Love
TTITLE6=Ain't Nobody Home
TTITLE7=Cause The World Ain't Been Good To You
TTITLE8=The Thrill Is Gone
TTITLE9=My Baby Don't Love Me Anymore
TTITLE10=How Can You Mend A Broken Heart
TTITLE11=Never Make Your Move Too Soon
TTITLE12=Talkin' 'Bout Life
EXTD=
EXTT0=
EXTT1=
EXTT2=
EXTT3=
EXTT4=
EXTT5=
EXTT6=
EXTT7=
EXTT8=
EXTT9=
EXTT10=
EXTT11=
EXTT12=
PLAYORDER=
